:SAMPLES-PER-SECOND 30
:FULLY-SPECIFIED
:DEGREES
575
root  1.08416 38.8931 11.4989 -171.798 44.3256 -176.348
RightUpLeg  -26.4844 26.6539 -6.87039
RightLeg  22.2946 18.3754 7.90544
RightFoot  -3.53004 -0.268297 3.61107
RightToes  -1.33073e-015 0 -3.6325e-017
Spine  21.5562 -8.76176 -27.3343
Spine1  3.14639 -15.2809 6.47182
HEad  6.9199 46.1148 -1.81451
LeftShoulder1  5.21568 -16.2391 -19.9232
LeftArm  66.6608 -66.7773 -135.836
LeftForeArm  75.6691 5.67396 -7.10744
LeftHand  -0.246645 0.021 5.37786
RightShoulder  6.14603 13.9388 29.2431
RightArm  -33.4165 38.5369 48.2194
RightForeArm  25.3128 57.8391 15.7685
RightHand  -0.24729 -0.0210522 -5.37781
LeftUpLeg  3.00954 37.1189 18.853
LeftLeg  18.9111 17.9642 4.69471
LeftFoot  -9.42498 0.38103 -19.2676
LeftToes  5.09284e-011 3.02203e-011 3.83118e-011
576
root  1.10181 38.8519 11.4199 -171.538 46.1605 -175.937
RightUpLeg  -26.8116 27.884 -6.77443
RightLeg  22.5927 18.7812 8.18975
RightFoot  -3.58594 -0.266179 3.58262
RightToes  -1.33073e-015 0 -3.6325e-017
Spine  21.6637 -9.2886 -28.7771
Spine1  2.16017 -16.1796 7.43825
HEad  6.61762 48.6582 -1.99532
LeftShoulder1  4.90149 -16.0038 -18.5369
LeftArm  75.28 -65.9872 -144.39
LeftForeArm  73.7211 5.85764 -7.75383
LeftHand  -0.246645 0.021 5.37786
RightShoulder  5.80042 13.4505 28.1987
RightArm  -36.1296 38.8445 46.7818
RightForeArm  30.4034 62.6948 19.129
RightHand  -0.24729 -0.0210522 -5.37781
LeftUpLeg  4.00679 37.8167 19.4137
LeftLeg  19.1316 18.7585 4.92571
LeftFoot  -9.70087 0.342769 -19.7356
LeftToes  5.09284e-011 3.02203e-011 3.83118e-011
577
root  1.12989 38.8063 11.3472 -171.236 47.9557 -175.461
RightUpLeg  -27.1335 29.1196 -6.63833
RightLeg  22.9349 19.2002 8.50144
RightFoot  -3.66477 -0.260063 3.49906
RightToes  -1.33073e-015 0 -3.6325e-017
Spine  21.6852 -9.85165 -30.0413
Spine1  1.22299 -17.0027 8.20226
HEad  6.36293 50.9691 -2.10754
LeftShoulder1  4.57227 -15.7619 -17.0308
LeftArm  83.2702 -64.8076 -152.091
LeftForeArm  72.0605 6.04184 -8.48862
LeftHand  -0.246645 0.021 5.37786
RightShoulder  5.49455 12.9852 27.2845
RightArm  -38.9444 39.157 44.9918
RightForeArm  36.3697 67.198 23.515
RightHand  -0.24729 -0.0210522 -5.37781
LeftUpLeg  4.95462 38.4536 19.9879
LeftLeg  19.442 19.5665 5.25132
LeftFoot  -9.97009 0.302878 -20.1655
LeftToes  5.09284e-011 3.02203e-011 3.83118e-011
578
root  1.1621 38.7594 11.283 -170.896 49.6809 -174.953
RightUpLeg  -27.4626 30.3084 -6.49468
RightLeg  23.3048 19.6316 8.83496
RightFoot  -3.73923 -0.252218 3.41353
RightToes  -1.33073e-015 0 -3.6325e-017
Spine  21.6134 -10.4495 -31.1953
Spine1  0.458223 -17.7993 8.85882
HEad  6.1743 53.0601 -2.25452
LeftShoulder1  4.17724 -15.3884 -15.2664
LeftArm  90.4151 -63.2779 -159.133
LeftForeArm  70.929 6.17334 -9.03474
LeftHand  -0.246645 0.021 5.37786
RightShoulder  5.15952 12.4578 26.252
RightArm  -41.8688 39.4113 43.0838
RightForeArm  43.8455 71.3288 29.5112
RightHand  -0.24729 -0.0210522 -5.37781
LeftUpLeg  5.81457 39.0792 20.5129
LeftLeg  19.7995 20.3259 5.67739
LeftFoot  -10.2046 0.267084 -20.6037
LeftToes  5.09284e-011 3.02203e-011 3.83118e-011
579
root  1.19222 38.7099 11.2339 -170.58 51.3117 -174.481
RightUpLeg  -27.834 31.5319 -6.40933
RightLeg  23.7352 19.9428 9.14586
RightFoot  -3.83129 -0.247251 3.37915
RightToes  -1.33073e-015 0 -3.6325e-017
Spine  21.5038 -11.0241 -32.3809
Spine1  -0.135202 -18.6003 9.64386
HEad  5.99429 54.9483 -2.47577
LeftShoulder1  3.73889 -14.8188 -13.4017
LeftArm  96.8962 -61.4938 -165.553
LeftForeArm  69.4982 6.29417 -9.4464
LeftHand  -0.246645 0.021 5.37786
RightShoulder  4.77527 11.8194 25.0458
RightArm  -44.8835 39.6217 41.1567
RightForeArm  53.6889 75.0355 38.2691
RightHand  -0.24729 -0.0210522 -5.37781
LeftUpLeg  6.56694 39.7759 20.9345
LeftLeg  20.191 20.9168 6.23538
LeftFoot  -10.3987 0.237537 -21.1418
LeftToes  5.09284e-011 3.02203e-011 3.83118e-011
580
root  1.21654 38.6544 11.2003 -170.318 52.794 -174.055
RightUpLeg  -28.2331 32.7566 -6.37223
RightLeg  24.2448 20.108 9.42953
RightFoot  -3.9745 -0.243627 3.37088
RightToes  -1.33073e-015 0 -3.6325e-017
Spine  21.4272 -11.5395 -33.5643
Spine1  -0.641814 -19.3745 10.5658
HEad  5.61127 56.5607 -2.79939
LeftShoulder1  3.32834 -14.1432 -11.7025
LeftArm  102.662 -59.5137 -171.176
LeftForeArm  67.3705 6.47081 -9.81111
LeftHand  -0.246645 0.021 5.37786
RightShoulder  4.4231 11.1781 23.9619
RightArm  -48.1653 39.8104 38.9395
RightForeArm  68.0353 78.1231 51.478
RightHand  -0.24729 -0.0210522 -5.37781
LeftUpLeg  7.20598 40.5926 21.2948
LeftLeg  20.6543 21.2437 6.9095
LeftFoot  -10.5873 0.207709 -21.7636
LeftToes  5.09284e-011 3.02203e-011 3.83118e-011
581
root  1.23213 38.5949 11.1743 -170.082 54.1094 -173.671
RightUpLeg  -28.6284 33.7813 -6.34943
RightLeg  24.7885 20.2885 9.73932
RightFoot  -4.15569 -0.240003 3.36884
RightToes  -1.33073e-015 0 -3.6325e-017
Spine  21.4109 -12.0435 -34.644
Spine1  -1.15002 -20.1179 11.4554
HEad  4.9143 57.8851 -3.23477
LeftShoulder1  2.97997 -13.4743 -10.2543
LeftArm  107.266 -57.4003 -175.907
LeftForeArm  65.6878 6.23706 -10.0219
LeftHand  -0.246645 0.021 5.37786
RightShoulder  4.15037 10.6361 23.1484
RightArm  -51.7802 39.9251 36.2264
RightForeArm  87.6526 80.1312 70.0417
RightHand  -0.24729 -0.0210522 -5.37781
LeftUpLeg  7.7296 41.4668 21.6254
LeftLeg  21.1819 21.3929 7.5935
LeftFoot  -10.7859 0.173602 -22.329
LeftToes  5.09284e-011 3.02203e-011 3.83118e-011
582
root  1.2365 38.5386 11.1531 -169.883 55.3211 -173.384
RightUpLeg  -29.0431 34.5976 -6.39503
RightLeg  25.3129 20.5352 10.0773
RightFoot  -4.32254 -0.238199 3.40248
RightToes  -1.33073e-015 0 -3.6325e-017
Spine  21.441 -12.6069 -35.6322
Spine1  -1.72726 -20.8722 12.197
HEad  4.25557 59.0111 -3.58055
LeftShoulder1  2.69413 -12.8579 -9.04841
LeftArm  110.679 -55.3269 -179.774
LeftForeArm  65.4701 4.55573 -10.222
LeftHand  -0.246645 0.021 5.37786
RightShoulder  3.9486 10.2108 22.5562
RightArm  -55.3807 39.8844 33.2119
RightForeArm  108.768 80.7468 90.5739
RightHand  -0.24729 -0.0210522 -5.37781
LeftUpLeg  8.17999 42.3579 21.8965
LeftLeg  21.6822 21.4693 8.1754
LeftFoot  -10.9633 0.141069 -22.7337
LeftToes  5.09284e-011 3.02203e-011 3.83118e-011
583
root  1.22765 38.4892 11.144 -169.843 56.4274 -173.276
RightUpLeg  -29.4699 35.4198 -6.56412
RightLeg  25.8212 20.6588 10.3555
RightFoot  -4.45837 -0.238109 3.45096
RightToes  -1.33073e-015 0 -3.6325e-017
Spine  21.6792 -13.1786 -36.5773
Spine1  -2.5944 -21.6392 12.9383
HEad  4.04827 59.9981 -3.7203
LeftShoulder1  2.5022 -12.2986 -8.34576
LeftArm  113.257 -53.4145 177.301
LeftForeArm  65.7636 3.13705 -10.4615
LeftHand  -0.246645 0.021 5.37786
RightShoulder  3.78781 9.88115 22.0346
RightArm  -58.4576 39.6103 30.4481
RightForeArm  126.73 80.3244 107.861
RightHand  -0.24729 -0.0210522 -5.37781
LeftUpLeg  8.64422 43.2373 22.1128
LeftLeg  22.0828 21.4173 8.61336
LeftFoot  -11.1158 0.111912 -23.0123
LeftToes  5.09284e-011 3.02203e-011 3.83118e-011
584
root  1.20092 38.4426 11.1511 -170.1 57.2711 -173.394
RightUpLeg  -29.7932 36.2062 -6.78818
RightLeg  26.3546 20.5584 10.5391
RightFoot  -4.61747 -0.234093 3.44776
RightToes  -1.33073e-015 0 -3.6325e-017
Spine  22.2553 -13.6232 -37.4103
Spine1  -3.77687 -22.318 13.7139
HEad  4.00818 60.8164 -3.86237
LeftShoulder1  2.41008 -11.852 -8.19086
LeftArm  115.044 -51.686 175.321
LeftForeArm  65.9341 2.14343 -10.8087
LeftHand  -0.246645 0.021 5.37786
RightShoulder  3.64444 9.59277 21.5333
RightArm  -60.9771 39.0437 28.085
RightForeArm  139.957 79.3907 120.381
RightHand  -0.24729 -0.0210522 -5.37781
LeftUpLeg  9.12118 43.9509 22.2928
LeftLeg  22.4316 21.1707 8.9237
LeftFoot  -11.3102 0.0735841 -23.2428
LeftToes  5.09284e-011 3.02203e-011 3.83118e-011
